<svg id="_2" data-name="2" xmlns="http://www.w3.org/2000/svg" xmlns:xlink="http://www.w3.org/1999/xlink" viewBox="0 0 596 493.19"><defs><style>.cls-1,.cls-3,.cls-6,.cls-7{fill:none;}.cls-2{fill:#fca9ad;}.cls-3,.cls-5,.cls-6{stroke:#231815;stroke-linecap:round;}.cls-10,.cls-3,.cls-5,.cls-6{stroke-linejoin:round;}.cls-4,.cls-5{fill:#231815;}.cls-6{stroke-width:2px;}.cls-7{stroke:#000;stroke-miterlimit:10;}.cls-8{clip-path:url(#clip-path);}.cls-9{clip-path:url(#clip-path-2);}.cls-10{font-size:38.42px;fill:#ff8b8d;stroke:#232323;stroke-width:0.5px;font-family:VDL-LogoMaru-Regular-83pv-RKSJ-H, VDL-LogoMaru;}.cls-11{fill:#4b4b4b;}</style><clipPath id="clip-path" transform="translate(83.7 -48.15)"><path class="cls-1" d="M126.18,390.62s0-8.72,3-12,8-4.76,11.13-4.17,3.05-.64,3.05-.64l-.54-6.42-3.74-3.27,1.55-4c0-.05,1-7.86,1-7.86l2-8.4-5.93-10.81-9.42-7.59-25.41-.59-18,9.73s-4,4.6-9.53,16,1.4,35.15,1.4,35.15l9,6Z"/></clipPath><clipPath id="clip-path-2" transform="translate(83.7 -48.15)"><path class="cls-1" d="M211.41,363.33v16.05a7.66,7.66,0,0,1-.64,2.89l-9.79,21a2.69,2.69,0,0,1-2.14,1.39h-5a3,3,0,0,0-2.3,1.28l-1.5,2.36L163.9,410.2l-24-.59-18.35-2.73-9.26-20.59,13.75-23s9-27.28,8.67-27.39-6.15-27.82-6.15-27.82l8.82-30.6,29.59-8.4,18.14,10.16,8.24,24.4,1.82,12.95,10.59,16.9,7.06,12.15Z"/></clipPath></defs><title>bike18</title><text x="83.7" y="-48.15"></text><circle class="cls-2" cx="344.36" cy="110.69" r="89.31"/><path d="M260.66,70a88.81,88.81,0,1,1-88.81,88.81A88.91,88.91,0,0,1,260.66,70m0-1a89.81,89.81,0,1,0,89.8,89.81A89.81,89.81,0,0,0,260.66,69Z" transform="translate(83.7 -48.15)"/><path class="cls-3" d="M256,195.71c-5.58-6.52-2.1-29.41-2.1-29.41l-2.39-7.18a89.21,89.21,0,0,1-8.11-9c-2.4-3.4-2.11-7.24,0-8.84s8,5.51,11.8,7.9,3.12,4.85,5.29,9.13,5.72,13,5.72,13,6.67,16.52,9.71,28.47l5.87,14.93" transform="translate(83.7 -48.15)"/><path class="cls-3" d="M205.53,168.76s-5.07-2.68-5.07-5.14,1-16.3,2.61-17.61,4.93,2.39,5.79,5.65l.37,3.7" transform="translate(83.7 -48.15)"/><path class="cls-3" d="M208.72,185.85s-4-3.91-5.29-5.36-.94-4.2,1.52-10.21,4.06-17,5.36-16.73,5.58,1.95,5.15,7.68a114.56,114.56,0,0,1-2.54,14.34l-.29,3.11" transform="translate(83.7 -48.15)"/><path class="cls-3" d="M217.12,192l2.25-4.2s6-9.27,7.68-11.44.14-8.62-3.12-6.81a36.84,36.84,0,0,0-11.08,10.79c-2.83,4.42-5.72,7.39-4.85,11.66s9.7,5.8,9.7,5.8c-2.39,4.78.58,5,3.12,6.95s11.66,6.67,11.66,6.67,9.92,5.21,14.49,6.73,5.72,2.47,5.72,2.47l3.4,7.53" transform="translate(83.7 -48.15)"/><path class="cls-3" d="M218.43,196.36s1.16-3.91,2.68-5.14,8.25-4.64,9.85-5.58,5.14,3.69,2.39,6.44-5.58,5.8-5.58,5.8l-1.45,2.32" transform="translate(83.7 -48.15)"/><line class="cls-3" x1="298.65" y1="129.38" x2="297.2" y2="124.45"/><line class="cls-3" x1="303.21" y1="145.24" x2="302.2" y2="141.55"/><line class="cls-3" x1="337.62" y1="143.21" x2="310.67" y2="150.97"/><path class="cls-3" d="M206.11,147,201,129.14a5.14,5.14,0,0,1,3.55-6.38l31.07-9a5.13,5.13,0,0,1,6.38,3.55l8.11,28" transform="translate(83.7 -48.15)"/><line class="cls-3" x1="300.32" y1="127.49" x2="298.14" y2="119.96"/><polyline class="cls-3" points="307.7 141.4 304.59 142.27 303.58 138.94"/><line class="cls-3" x1="336.46" y1="133.07" x2="316.98" y2="138.72"/><polyline class="cls-3" points="294.01 105.4 287.42 83.02 324.44 72.3 330.81 94.46"/><path class="cls-4" d="M242.62,119.57s-.58-6.37-6.45-6l-32.45,9.56S200,126,201,129.42,206.55,148,206.55,148s2.17,1.3,2.46,6.52l1.16-1.23-6.45-22.1,37-10.72,6.37,22.17,2.47,2C250,145,242.62,119.57,242.62,119.57Zm-17.89,1.81-7,2h-.07c-.14,0-.29-.07-.29-.21a.28.28,0,0,1,.22-.37l7-2a.29.29,0,0,1,.37.22A.28.28,0,0,1,224.73,121.38Z" transform="translate(83.7 -48.15)"/><path class="cls-3" d="M241.53,192.66" transform="translate(83.7 -48.15)"/><path class="cls-4" d="M242,187.3a3,3,0,0,0-1.3-.36,2.82,2.82,0,0,0-.8.15,2.78,2.78,0,0,0-.58,5.07,2.65,2.65,0,0,0,2.1.21,2.76,2.76,0,0,0,1.89-3.4A2.81,2.81,0,0,0,242,187.3Z" transform="translate(83.7 -48.15)"/><path class="cls-4" d="M253.49,189.69l-.73-8.47-16.95,4.92s-2.75.44-2.1,1,.36,3.76.07,4.27-3.62,3.91-3.62,3.91l-3.26,3.91,26.88-7.75ZM241.68,193a4.36,4.36,0,0,1-.94.14,3.38,3.38,0,0,1-1.67-.43,3.21,3.21,0,0,1-1.59-2,3.37,3.37,0,0,1,2.32-4.2,3.56,3.56,0,0,1,2.6.29,3.18,3.18,0,0,1,1.6,2A3.53,3.53,0,0,1,241.68,193Z" transform="translate(83.7 -48.15)"/><polyline class="cls-3" points="289.16 89.03 308.94 83.31 326.18 78.31"/><circle class="cls-3" cx="311.26" cy="96.13" r="7.24"/><path class="cls-3" d="M233.28,148.48c-.37-1.89-2.54-1.89-3.19-1.89a.56.56,0,0,1-.58-.43,4.93,4.93,0,0,0-.22-.65,6.84,6.84,0,0,0,0-1.24c.22-.14.29-.36.29-1,0-.36-.14-.51-.22-.51v-.14c.08-.58-.43-3.19-2.46-2.75a1.49,1.49,0,0,0-2,.43,2.5,2.5,0,0,0-.51,2.17A4.88,4.88,0,0,0,225,144h0c-.07.07-.07.28.07.5.36.58.51.65.8.65a9.76,9.76,0,0,0,.65,1,2.68,2.68,0,0,0,.22.65.58.58,0,0,1-.22.65c-.51.36-2.32,1.52-1.67,3.26" transform="translate(83.7 -48.15)"/><path class="cls-3" d="M244,158.84l-22.53,6.51a1.77,1.77,0,0,1-2.17-1.15l-.66-2.25a1.77,1.77,0,0,1,1.16-2.17l22.53-6.52a1.77,1.77,0,0,1,2.17,1.16l.66,2.24A1.78,1.78,0,0,1,244,158.84Z" transform="translate(83.7 -48.15)"/><path class="cls-3" d="M221.32,171.37l-.58-1.89a1.46,1.46,0,0,1,1-1.81l23-6.66a1.46,1.46,0,0,1,1.82,1l.79,2.76a1.45,1.45,0,0,1-1,1.81l-19,5.5" transform="translate(83.7 -48.15)"/><path class="cls-4" d="M227.55,175.42l19.78-5.86a1.44,1.44,0,0,1,1.81,1l1.16,4.06a1.45,1.45,0,0,1-1,1.81l-23,6.66a1.45,1.45,0,0,1-1.81-1l-.36-1.38Z" transform="translate(83.7 -48.15)"/><line class="cls-3" x1="339.22" y1="166.61" x2="355.15" y2="160.53"/><polygon class="cls-4" points="303.14 144.95 302.2 141.55 304.01 138.94 304.52 141.98 306.11 141.84 303.14 144.95"/><polygon class="cls-4" points="298.65 129.38 300.32 127.5 298.14 119.96 297.2 124.45 298.65 129.38"/><path class="cls-3" d="M296.59,145.58l-24-4.85a3,3,0,0,1-2.32-3.48l2.9-14.42a3,3,0,0,1,3.48-2.32l24,4.86a3,3,0,0,1,2.31,3.48l-2.89,14.41A2.93,2.93,0,0,1,296.59,145.58Z" transform="translate(83.7 -48.15)"/><line class="cls-3" x1="356.46" y1="77" x2="386.23" y2="83.02"/><line class="cls-3" x1="356.17" y1="78.53" x2="385.94" y2="84.61"/><polygon class="cls-3" points="359.93 83.96 357.4 85.12 358.05 81.93 359.93 83.96"/><path class="cls-3" d="M277.54,157.46s-8.77-3.48-14.49-8.55-9.85-19.63-2.54-33.25,32.31-11.3,42.24-6,20.64,22.38,13.18,39.19-33.4,9.42-33.4,9.42l-8.4,4.49Z" transform="translate(83.7 -48.15)"/><circle class="cls-2" cx="455.04" cy="293.22" r="89.31"/><path d="M371.34,252.56a88.81,88.81,0,1,1-88.81,88.8,88.9,88.9,0,0,1,88.81-88.8m0-1a89.81,89.81,0,1,0,89.8,89.8,89.81,89.81,0,0,0-89.8-89.8Z" transform="translate(83.7 -48.15)"/><path class="cls-3" d="M378.3,299.68s-1,.75-1,3.48,0,4.8,0,4.8L375.11,311s.12.69,1.16,1l1,.41,1,4.92s-.29,1.27,2.72.87a10.46,10.46,0,0,1,4.34.05l2.72,5.33" transform="translate(83.7 -48.15)"/><path class="cls-5" d="M383.91,294.3s-9.09,2.89-8.22,9.38c0,0,.58,1.73,1.51,1.73a4.09,4.09,0,0,0,3.24-1.62,6.28,6.28,0,0,0,3.47.18c1.45-.47,3-1.05,3-1.05l1.16,4.23,1-.17a1.33,1.33,0,0,1,1.86,0,2.71,2.71,0,0,1,.4,3.35,4.38,4.38,0,0,1-.69.87,1.73,1.73,0,0,0,.11,2.55l2.26,1.39a30.53,30.53,0,0,0,3.53-4.11c1.68-2.37,1.91-8,0-11.93s-7.41-4.22-7.41-4.22S387.27,292.73,383.91,294.3Z" transform="translate(83.7 -48.15)"/><line class="cls-3" x1="475.89" y1="265.03" x2="478.44" y2="269.71"/><path class="cls-3" d="M396.71,333.09s-7,7.93-11.7,12.33a22.69,22.69,0,0,1-3.12,2.66c-3.36,2.09-20.27,9-20.27,9-2.6-1-2.95-4.51-2.95-4.51l18.24-11.46s5-8.75,11.58-18.13c6.19-8.74,10.54-4.11,10.54-4.11s5.09,4.17,7.81,15.81,3.65,33.75,3.65,33.75v5s-11.87,2.49-22.41-1.62l-1.56-.41.69-8.39-1.67-17.72" transform="translate(83.7 -48.15)"/><path class="cls-3" d="M378.47,338.07l-20.73,12.44.93,2.9-3.47,1.33s-5.62-1.16-6.83-.11c-1.39,1.21-4.46,3.47-3.59,4.34,0,0,1.15,1.45,1.67,1.45s.64-.35.64-.35" transform="translate(83.7 -48.15)"/><path class="cls-3" d="M349.52,355.26s-4,3.59-3.41,4.17a9.62,9.62,0,0,0,2.2,1.27" transform="translate(83.7 -48.15)"/><line class="cls-3" x1="444.05" y1="308.16" x2="439.82" y2="309.43"/><path class="cls-3" d="M352,357.58s-1.91,1.45-1.44,2.31a6.13,6.13,0,0,0,1.44,1.63s1.92.69,2,0-.87-1.1-.87-1.1" transform="translate(83.7 -48.15)"/><path class="cls-3" d="M350.8,356s-2.43,1.68-2.43,2.54a9.12,9.12,0,0,0,.28,2.15c.12.46,1.68.11,2.73.17" transform="translate(83.7 -48.15)"/><path class="cls-5" d="M344.72,359s-2.55.34-2.61,2.25L340,374.89h2.49l1.91-12.56a2.86,2.86,0,0,1,2.89-1.68l-2.31-.93Z" transform="translate(83.7 -48.15)"/><polyline class="cls-3" points="424.89 345.68 426.91 326.69 423.21 326.69 421.18 345.85"/><circle class="cls-4" cx="462.93" cy="259.93" r="0.41"/><path class="cls-3" d="M380.56,306.34a2.14,2.14,0,0,0-1.34-.17" transform="translate(83.7 -48.15)"/><path class="cls-5" d="M379.22,314.45a6.17,6.17,0,0,0,3-.64" transform="translate(83.7 -48.15)"/><path class="cls-3" d="M353.11,360.36s6,.11,6.78,0,.75-.41.75-.41v-1.74c0-.69-1.39-.69-1.39-.69h-5C354.21,357.58,351.84,358.62,353.11,360.36Z" transform="translate(83.7 -48.15)"/><path class="cls-6" d="M328.85,363.6l-11.34-.06h-2.9s-1.5-.11-1.5.75.29,4.81.34,5.5S315,381.55,315,381.55l.46,3.07a.73.73,0,0,0,.7.4c.46-.06,5.5-.11,6.77,0s6.95.12,8.57,0,6-.06,6.72-.17,1-.06,1.21-.35,2.72-11.12,2.72-11.12l1.62-9.95Z" transform="translate(83.7 -48.15)"/><path class="cls-6" d="M313.4,369.45s-1.57.92,0,1.1,4.05-.06,7.35,0,10.83.05,10.83.05h10.94" transform="translate(83.7 -48.15)"/><path class="cls-6" d="M314.26,376.34s-1.1.29-.29.81,4.87.46,4.87.46h22.23" transform="translate(83.7 -48.15)"/><path class="cls-6" d="M317.8,363.54s.34,6.25.29,7.06.63,7.47.63,7.47l.35,6.95" transform="translate(83.7 -48.15)"/><polyline class="cls-6" points="410.41 315.34 410.41 322.4 410.12 329.46 410.12 336.82"/><polyline class="cls-6" points="419.56 315.39 417.59 329.46 416.67 336.99"/><path class="cls-3" d="M331.81,388.9c.17-2.2-.41-3.59-2.15-3.76s-2.6,5.38-1.33,6.54S331.58,391.56,331.81,388.9Z" transform="translate(83.7 -48.15)"/><path class="cls-3" d="M329.66,385.14s7.82-.06,8.23.81a4.36,4.36,0,0,1,.34,2c.06.29-8.45,4.17-8.45,4.17" transform="translate(83.7 -48.15)"/><path class="cls-5" d="M389.36,372.34s-28.26-2.6-29.42,1-3.82,21.43-3.82,21.43h11.29l2.2-11.64s30.11,6.19,35.61,4.57,3.71-13.95,3.71-13.95a37.32,37.32,0,0,1-8.23.46A103.27,103.27,0,0,1,389.36,372.34Z" transform="translate(83.7 -48.15)"/><path class="cls-5" d="M404.53,327.53s4.51-1.1,6.94,0,8.4,21.71,9.27,28.43,1.62,13.54-1.16,15.51-8.86,1.22-8.86,1.22-1.74-20.84-3-31.55S404.53,327.53,404.53,327.53Z" transform="translate(83.7 -48.15)"/><path class="cls-5" d="M388,342.47S390.75,357.93,396,359l3,.63s-5.21-15.28-6.77-21.59Z" transform="translate(83.7 -48.15)"/><path class="cls-5" d="M394.74,356.94c4.92,7.64,16.1,14.53,16.1,14.53l-.41-3s-8.86-3.53-15.75-17.43v5.85Z" transform="translate(83.7 -48.15)"/><path class="cls-5" d="M394.74,387.39s-9.73-1.5-10.19,0a7.65,7.65,0,0,0,0,3.42s19.8,5,20.61,3.19.12-6.26.12-6.26Z" transform="translate(83.7 -48.15)"/><path class="cls-5" d="M392.6,392.08a20.65,20.65,0,0,0,0,3.36h3.07v-3.36Z" transform="translate(83.7 -48.15)"/><polyline class="cls-3" points="441.79 303.64 437.74 305.61 435.02 305.61 434.61 306.07"/><path class="cls-3" d="M294.64,304.43c0-.06,19.05-2,19.05-2L338.23,308v55.41" transform="translate(83.7 -48.15)"/><path class="cls-3" d="M313.69,302.4s-.18,12.68,0,21.31,0,19.05,0,19.05-.24,13.25.05,15.69" transform="translate(83.7 -48.15)"/><path class="cls-3" d="M338.23,312.3l-5.27-.63a85.46,85.46,0,0,1-9.49-1.57c-4.34-1-7-1.62-7-1.62v3.24a19.49,19.49,0,0,0,4,1c3,.57,9.26,1.33,9.26,1.33l8.57,1" transform="translate(83.7 -48.15)"/><path class="cls-3" d="M338.23,326.49l-5.27-.64a84.22,84.22,0,0,1-9.49-1.56l-7-1.68v3.24a20.16,20.16,0,0,0,4,1c3,.58,9.26,1.33,9.26,1.33l8.57,1" transform="translate(83.7 -48.15)"/><path class="cls-3" d="M338.23,321.51s-8.28-.58-11.69-1-10.13-1.33-10.13-1.33v-3.3s2.83.58,5.84.87,6.6,1,10.71,1.39,5.27.58,5.27.58" transform="translate(83.7 -48.15)"/><line class="cls-3" x1="403.99" y1="261.26" x2="404.1" y2="264.62"/><line class="cls-3" x1="408.1" y1="262.19" x2="408.1" y2="265.03"/><line class="cls-3" x1="412.09" y1="262.94" x2="412.09" y2="265.66"/><line class="cls-3" x1="415.8" y1="263.64" x2="415.8" y2="266.3"/><line class="cls-3" x1="419.27" y1="263.87" x2="419.27" y2="266.65"/><line class="cls-3" x1="403.47" y1="268.33" x2="403.47" y2="271.51"/><line class="cls-3" x1="407.46" y1="268.79" x2="407.46" y2="272.03"/><line class="cls-3" x1="411.63" y1="269.54" x2="411.63" y2="272.55"/><line class="cls-3" x1="415.33" y1="269.89" x2="415.33" y2="272.84"/><line class="cls-3" x1="418.87" y1="270.53" x2="418.87" y2="273.13"/><line class="cls-3" x1="402.83" y1="275.1" x2="402.83" y2="278.46"/><line class="cls-3" x1="406.48" y1="275.97" x2="406.48" y2="279.15"/><line class="cls-3" x1="410.41" y1="276.78" x2="410.12" y2="279.67"/><line class="cls-3" x1="414.12" y1="277.42" x2="414.12" y2="280.19"/><line class="cls-3" x1="417.07" y1="277.82" x2="416.67" y2="280.48"/><line class="cls-3" x1="419.56" y1="278.05" x2="419.27" y2="280.48"/><path class="cls-3" d="M338.23,334.3l-5.27-.63a82.89,82.89,0,0,1-9.49-1.57c-4.34-1-7-1.62-7-1.62v3.24a19.49,19.49,0,0,0,4,1c3,.58,9.26,1.33,9.26,1.33l8.57,1" transform="translate(83.7 -48.15)"/><path class="cls-3" d="M338.23,348.49l-5.27-.64a84.22,84.22,0,0,1-9.49-1.56l-7-1.68v3.24a20.16,20.16,0,0,0,4,1c3,.58,9.26,1.34,9.26,1.34l8.57,1" transform="translate(83.7 -48.15)"/><path class="cls-3" d="M338.23,343.51s-8.28-.58-11.69-1-10.13-1.33-10.13-1.33v-3.3s2.83.58,5.84.87,6.6,1,10.71,1.39,5.27.58,5.27.58" transform="translate(83.7 -48.15)"/><line class="cls-3" x1="403.99" y1="283.26" x2="404.1" y2="286.62"/><line class="cls-3" x1="408.1" y1="284.19" x2="408.1" y2="287.03"/><line class="cls-3" x1="412.09" y1="284.94" x2="412.09" y2="287.66"/><line class="cls-3" x1="415.8" y1="285.64" x2="415.8" y2="288.3"/><line class="cls-3" x1="419.27" y1="285.87" x2="419.27" y2="288.65"/><line class="cls-3" x1="403.47" y1="290.33" x2="403.47" y2="293.51"/><line class="cls-3" x1="407.46" y1="290.79" x2="407.46" y2="294.03"/><line class="cls-3" x1="411.63" y1="291.54" x2="411.63" y2="294.55"/><line class="cls-3" x1="415.33" y1="291.89" x2="415.33" y2="294.84"/><line class="cls-3" x1="418.87" y1="292.53" x2="418.87" y2="295.13"/><line class="cls-3" x1="402.83" y1="297.1" x2="402.83" y2="300.46"/><line class="cls-3" x1="406.48" y1="297.97" x2="406.48" y2="301.15"/><line class="cls-3" x1="410.41" y1="298.78" x2="410.12" y2="301.67"/><line class="cls-3" x1="414.12" y1="299.42" x2="414.12" y2="302.19"/><line class="cls-3" x1="417.07" y1="299.82" x2="416.67" y2="302.48"/><line class="cls-3" x1="419.56" y1="300.05" x2="419.27" y2="302.48"/><polyline class="cls-3" points="421.93 276.78 435.94 277.42 435.94 304.05 435.94 305.61"/><path class="cls-3" d="M340.38,329.27s7,.05,8.74,0,3.12,0,3.12,0" transform="translate(83.7 -48.15)"/><path class="cls-3" d="M340.38,333.15s7,.05,8.74,0,3.12,0,3.12,0" transform="translate(83.7 -48.15)"/><path class="cls-3" d="M340.38,337s7,0,8.74,0,3.12,0,3.12,0" transform="translate(83.7 -48.15)"/><path class="cls-3" d="M340.38,340.79s7,.06,8.74,0,3.12,0,3.12,0" transform="translate(83.7 -48.15)"/><path class="cls-3" d="M340.38,344.61s7,.06,8.74,0,3.12,0,3.12,0" transform="translate(83.7 -48.15)"/><polyline class="cls-3" points="536.11 303.64 527.42 298.78 512.08 304.86 512.08 319.91 502.53 319.91"/><line class="cls-3" x1="527.42" y1="298.78" x2="527.42" y2="319.91"/><line class="cls-3" x1="515.26" y1="308.16" x2="527.42" y2="303.64"/><line class="cls-3" x1="515.26" y1="312.79" x2="527.42" y2="308.27"/><line class="cls-3" x1="515.26" y1="317.71" x2="527.42" y2="313.2"/><path class="cls-7" d="M415.58,302.63s-1.91,4.81-2.2,5.39" transform="translate(83.7 -48.15)"/><polygon points="498.65 256.17 494.65 254.49 495.35 252.58 499.4 254.55 498.65 256.17"/><path d="M412.4,308.89s-1.33-.35-1.1-.93,1-.75,2-.46S413.85,308.94,412.4,308.89Z" transform="translate(83.7 -48.15)"/><path d="M408.81,306.11s-1.33-.35-1.1-.93,1-.75,2-.46S410.26,306.17,408.81,306.11Z" transform="translate(83.7 -48.15)"/><path class="cls-7" d="M411.7,301.3a13,13,0,0,1-2,4.06" transform="translate(83.7 -48.15)"/><path class="cls-7" d="M338.23,315.89a38.57,38.57,0,0,1,5.45,0c4.22.18,6.77.52,6.77.52v6.84H338.23" transform="translate(83.7 -48.15)"/><line class="cls-7" x1="432.88" y1="275.1" x2="432.88" y2="277.24"/><line class="cls-7" x1="431.66" y1="275.1" x2="431.66" y2="277.24"/><line class="cls-7" x1="425.23" y1="275.1" x2="425.23" y2="276.89"/><line class="cls-7" x1="424.08" y1="275.1" x2="424.08" y2="276.89"/><line class="cls-7" x1="422.17" y1="274.17" x2="434.15" y2="274.17"/><circle class="cls-2" cx="239.5" cy="300.01" r="89.31"/><path d="M155.8,259.35A88.81,88.81,0,1,1,67,348.16a88.91,88.91,0,0,1,88.81-88.81m0-1a89.81,89.81,0,1,0,89.81,89.81,89.81,89.81,0,0,0-89.81-89.81Z" transform="translate(83.7 -48.15)"/><g id="レイヤー_4" data-name="レイヤー 4"><g class="cls-8"><path class="cls-6" d="M131.37,346.59l6.74-.06h1.72s.91,0,.91.43-.17,2.68-.22,3.05-.85,6.53-.85,6.53l-.27,1.71a.39.39,0,0,1-.43.22c-.27-.06-3.26-.06-4,0s-4.12,0-5.09,0-3.58-.06-4-.11-.59-.06-.7-.22-1.6-6.15-1.6-6.15l-1-5.56Z" transform="translate(83.7 -48.15)"/><path class="cls-6" d="M140.52,349.85s.91.48,0,.59-2.41-.05-4.33,0-6.42.05-6.42.05h-6.48" transform="translate(83.7 -48.15)"/><path class="cls-6" d="M140,353.7s.64.16.16.43a12.36,12.36,0,0,1-2.89.27H124.1" transform="translate(83.7 -48.15)"/><path class="cls-6" d="M138,346.53s-.21,3.48-.21,3.91-.38,4.17-.38,4.17l-.21,3.86" transform="translate(83.7 -48.15)"/><polyline class="cls-6" points="216.36 298.39 216.36 302.35 216.52 306.25 216.52 310.37"/><polyline class="cls-6" points="210.95 298.39 212.08 306.25 212.61 310.43"/><path class="cls-3" d="M133.35,360.82c-.1-1.23.22-2,1.18-2.09s1.44,2.95.69,3.59S133.46,362.26,133.35,360.82Z" transform="translate(83.7 -48.15)"/><path class="cls-3" d="M134.53,358.73s-4.28-.05-4.49.43a2.63,2.63,0,0,0-.22,1.07c0,.16,4.66,2.3,4.66,2.3" transform="translate(83.7 -48.15)"/><path class="cls-3" d="M124.42,348.25c-.22.42.69.42.69.42.65,0,.59-.26.59-.26s0-.11-.16-.11" transform="translate(83.7 -48.15)"/><line class="cls-3" x1="212.72" y1="313.26" x2="209.4" y2="300.26"/><path class="cls-3" d="M128.75,362s-.8.26-.64,1.87a68.14,68.14,0,0,0,3.8,9.9c.64,1,.27,1.33,0,1.17s-.64-.64-1.13-1.71-2.88-7.17-3.26-8.72a2.9,2.9,0,0,1,.86-3.1" transform="translate(83.7 -48.15)"/><path class="cls-3" d="M128.11,364a9.42,9.42,0,0,1,5.3-.11,5.62,5.62,0,0,0,1.81-.91,10.11,10.11,0,0,0-6.52-1" transform="translate(83.7 -48.15)"/><path class="cls-3" d="M127.36,364.4c-1.23.81-3.91,3.37-3.58,10.44a13.49,13.49,0,0,0,.48,2.94s-1.29.8-1.55,0c-.38-1-1.29-4.23.05-9.47a9,9,0,0,1,4.87-6" transform="translate(83.7 -48.15)"/><path class="cls-3" d="M134.64,363.39c2.24,1.07,5.51,3.58,6.79,9.25,2,9.1-2.78,14.23-7.06,14.5-3.59.27-8.56-1.28-10.59-9.09" transform="translate(83.7 -48.15)"/><path class="cls-3" d="M128.54,365.31a6.06,6.06,0,0,1,3.8-.64s5.88.8,7.54,8.35-2.3,11.82-5.83,12c-3.21.22-7.81-1.28-9.2-9.3-.86-5,.69-8.35,3-10" transform="translate(83.7 -48.15)"/><path class="cls-3" d="M128.7,366a5.53,5.53,0,0,1,3.64-.65s5.51.75,7.06,7.81-2.14,11.08-5.51,11.29c-3,.22-7.33-1.17-8.62-8.72-.8-4.65.65-7.81,2.79-9.36" transform="translate(83.7 -48.15)"/><path class="cls-3" d="M78.35,369.27a10.43,10.43,0,0,0-.75,3.43c-1,8.07,4.71,12.78,9.31,13.16,3.59.26,9.1-1.71,10.33-8.78" transform="translate(83.7 -48.15)"/><path class="cls-3" d="M90.39,366.33a7.52,7.52,0,0,0-4.12-.64,8.13,8.13,0,0,0-7,7.33c-.85,6.74,3.91,10.64,7.76,10.91,3.26.27,7.65-.85,8.51-7.06" transform="translate(83.7 -48.15)"/><path class="cls-3" d="M95.1,371.41a8.3,8.3,0,0,0-3.91-4.65l-.21-.11" transform="translate(83.7 -48.15)"/><path class="cls-3" d="M95.63,374.19a6.91,6.91,0,0,0-.1-1" transform="translate(83.7 -48.15)"/><path class="cls-3" d="M95.58,376.44c0-.21,0-.43,0-.64v-.48" transform="translate(83.7 -48.15)"/><path class="cls-3" d="M90.18,366.86a7.46,7.46,0,0,0-10.44,6.32c-.8,6.31,3.64,10,7.28,10.27,3,.27,7.12-.8,8-6.53" transform="translate(83.7 -48.15)"/><path class="cls-3" d="M94.62,371.57A8.43,8.43,0,0,0,91,367.24l-.21-.11" transform="translate(83.7 -48.15)"/><path class="cls-3" d="M95.15,374.3a6.53,6.53,0,0,0-.1-1" transform="translate(83.7 -48.15)"/><path class="cls-3" d="M95.1,376.39c0-.22.05-.43.05-.64v-.43" transform="translate(83.7 -48.15)"/><path class="cls-3" d="M98,373l.16,1" transform="translate(83.7 -48.15)"/><path class="cls-3" d="M92.26,364.24a11.76,11.76,0,0,1,5.19,6.58" transform="translate(83.7 -48.15)"/><path class="cls-3" d="M91.19,365.05c-3.74-1.82-9-.81-12,3.95,0,0-1.61.75-1.07-.32a5.38,5.38,0,0,1,.58-1.12,9.53,9.53,0,0,1,9.26-4.6,12.12,12.12,0,0,1,3.8,1" transform="translate(83.7 -48.15)"/><path class="cls-3" d="M96.17,371.14a11.63,11.63,0,0,0-4-5.51c-.16-.1-.32-.21-.53-.32" transform="translate(83.7 -48.15)"/><path class="cls-3" d="M97,374.14c-.06-.32-.17-.69-.22-1.07" transform="translate(83.7 -48.15)"/><path class="cls-3" d="M98.26,375.32v.75s-.59.05-1-.75" transform="translate(83.7 -48.15)"/><polyline class="cls-3" points="162.7 318.88 162.11 318.67 161.36 320.06 161.68 320.59"/><path class="cls-3" d="M88,374.09s3.85-.43,7.06-.81c1-.1,1.87-.21,2.57-.32,3-.37,2.08,2.68,4.17,4.6s6.53,1.07,7.54-1.87c1.18-3.53-2.08-6.69-5.61-6.2s-16.32,3.85-16.32,3.85" transform="translate(83.7 -48.15)"/><path class="cls-3" d="M86.86,376.07s1.07-.16,1.28-1a1.7,1.7,0,0,0-1.55-2,1.66,1.66,0,0,0-1.33,2C85.42,375.85,86.11,375.91,86.86,376.07Z" transform="translate(83.7 -48.15)"/><path class="cls-3" d="M86.49,375.69a1.16,1.16,0,0,0,1-.8,1.35,1.35,0,0,0-1.23-1.55,1.24,1.24,0,0,0-1,1.55C85.36,375.59,86,375.64,86.49,375.69Z" transform="translate(83.7 -48.15)"/><path class="cls-3" d="M104.89,370.07s2.46.91,2.89,2.95,0,4.28-2.89,4.81" transform="translate(83.7 -48.15)"/><line class="cls-3" x1="183.62" y1="325.89" x2="171.85" y2="326.37"/><polyline class="cls-3" points="184.15 327.17 182.01 327.17 171.69 327.17"/><polyline class="cls-3" points="185.54 329.42 178.69 328.72 170.56 327.92"/><polyline class="cls-3" points="185.06 328.88 178.8 328.24 171.42 327.49"/><path class="cls-5" d="M98.79,380.61l5.73-6.09s.21-.59-.65-.65l-6.26,6.69" transform="translate(83.7 -48.15)"/><path class="cls-5" d="M102.27,380.72a1.54,1.54,0,0,1,0,1.18H96.7a2.43,2.43,0,0,1,0-1.29Z" transform="translate(83.7 -48.15)"/><path class="cls-3" d="M103.93,375.21a1.12,1.12,0,0,0,1.28,0,1.16,1.16,0,0,0-.21-2.09,1.18,1.18,0,0,0-1.61,1.39" transform="translate(83.7 -48.15)"/><path class="cls-3" d="M103.77,375.48a1.41,1.41,0,0,0,1.66-.06,1.55,1.55,0,0,0-.27-2.72c-1.34-.7-2.57,1-2.14,2.14" transform="translate(83.7 -48.15)"/><path class="cls-5" d="M91.51,348.46s5.41,0,7-.21,1.77-.59,2,.42.11,2-2.67,2.41-7.22,1.93-7.71,1.18a7.29,7.29,0,0,1-.69-3.59C89.59,347.71,91.51,348.46,91.51,348.46Z" transform="translate(83.7 -48.15)"/><polyline class="cls-3" points="179.55 307.38 178.59 304.06 174.63 304.33"/><polyline class="cls-3" points="181.96 302.88 179.82 303.69 180.78 307.11"/><path class="cls-3" d="M100.72,370.07l-5-14.55a2.76,2.76,0,0,0,1.76-.48l5,13.16a2.1,2.1,0,0,0,1.82,1,43.4,43.4,0,0,0,12.57-2c2.46-.86,9.63-10.54,9.63-10.54l-2-8.29" transform="translate(83.7 -48.15)"/><line class="cls-3" x1="179.66" y1="308.18" x2="170.45" y2="324.92"/><line class="cls-3" x1="179.98" y1="308.93" x2="170.99" y2="325.09"/><path class="cls-3" d="M108.31,371s7.23-.75,10.06-2.36,8.72-9.63,8.72-9.63l.75,2.79" transform="translate(83.7 -48.15)"/><path class="cls-3" d="M93.23,378.47" transform="translate(83.7 -48.15)"/><path class="cls-3" d="M128.91,360.87" transform="translate(83.7 -48.15)"/><path class="cls-3" d="M130.3,361.78A1.5,1.5,0,0,0,129,361" transform="translate(83.7 -48.15)"/><path class="cls-5" d="M128.43,331.18a3.09,3.09,0,0,1,2,.21c.86,1-1.44,2.14-1.5,2.14s-3.32,2.09-3.32,2.09l-2.14,1.23A1.06,1.06,0,0,0,123,338l2.62,10.6h-1.07c-.42-.91-2.19-8.08-2.78-10.92a1.43,1.43,0,0,1,.75-1.6l1.13-.64h-2.57a2.56,2.56,0,0,1-2-1l-.1-.16a3.29,3.29,0,0,0-2.68-1.34h-.1v-1.07h1.28a2.15,2.15,0,0,1,1.39.54l1.55,1.49a1.52,1.52,0,0,0,1,.38h4.39s2.62-1.23,3.1-2.14l-.42.43.21-1.39" transform="translate(83.7 -48.15)"/><line class="cls-3" x1="181.15" y1="327.44" x2="181.05" y2="328.46"/><path class="cls-3" d="M114.41,333.05h-5.13a.73.73,0,0,1-.32-.69v-.27c.05-.27.32-.43.69-.43h4.66" transform="translate(83.7 -48.15)"/><path class="cls-3" d="M128.64,331.07s-.48.06-.32.7l.11.69h-4.76a.73.73,0,0,1-.32-.69v-.27c.05-.27.32-.43.69-.43Z" transform="translate(83.7 -48.15)"/><path class="cls-3" d="M115.86,331.61a4.82,4.82,0,0,0,0,2,.37.37,0,0,1-.32.48l-.7.05a.38.38,0,0,1-.37-.32,5.24,5.24,0,0,1,0-2.46c0-.16.16-.32.32-.32h.69A.56.56,0,0,1,115.86,331.61Z" transform="translate(83.7 -48.15)"/><path class="cls-3" d="M115.86,331.45h0a.29.29,0,0,1,.27.37,4.17,4.17,0,0,0,0,1.71h0a.32.32,0,0,1-.22.38h0" transform="translate(83.7 -48.15)"/><path class="cls-3" d="M128.22,332.46l-2.68.54s-1.5.21-1.76.75c0,0,0,.27,1,0a17.07,17.07,0,0,1,2.52-.38" transform="translate(83.7 -48.15)"/><path class="cls-3" d="M114.47,333.75a11,11,0,0,0-2.46.43,10.75,10.75,0,0,1-2.14.53c0-.11-.11-.43.48-.69s3.85-1,3.85-1" transform="translate(83.7 -48.15)"/><line class="cls-3" x1="219.51" y1="318.83" x2="215.93" y2="326.69"/><line class="cls-3" x1="222.08" y1="321.93" x2="215.93" y2="326.69"/><line class="cls-3" x1="223.31" y1="325.89" x2="215.93" y2="326.69"/><line class="cls-3" x1="223.47" y1="329.1" x2="215.93" y2="326.69"/><line class="cls-3" x1="222.62" y1="332.47" x2="215.93" y2="326.69"/><line class="cls-3" x1="220.85" y1="334.88" x2="215.93" y2="326.69"/><line class="cls-3" x1="217.37" y1="336.32" x2="215.93" y2="326.69"/><line class="cls-3" x1="213.63" y1="335.46" x2="215.93" y2="326.69"/><line class="cls-3" x1="210.85" y1="332.74" x2="215.93" y2="326.69"/><line class="cls-3" x1="209.51" y1="329.74" x2="215.55" y2="326.85"/><line class="cls-3" x1="208.87" y1="326.53" x2="215.23" y2="326.53"/><line class="cls-3" x1="209.13" y1="322.78" x2="214.97" y2="326.16"/><line class="cls-3" x1="210.31" y1="319.74" x2="214.32" y2="324.71"/><line class="cls-3" x1="216.52" y1="317.27" x2="215.93" y2="326.69"/><line class="cls-3" x1="213.31" y1="317.6" x2="215.66" y2="325.89"/><line class="cls-3" x1="170.56" y1="327.92" x2="171.42" y2="335.3"/><line class="cls-3" x1="169.97" y1="327.92" x2="167.94" y2="334.39"/><line class="cls-3" x1="169.49" y1="327.6" x2="165.05" y2="331.88"/><line class="cls-3" x1="168.96" y1="326.85" x2="163.45" y2="327.71"/><line class="cls-3" x1="168.96" y1="326.1" x2="163.55" y2="324.44"/><line class="cls-3" x1="169.28" y1="325.35" x2="165.1" y2="320.86"/><line class="cls-3" x1="170.03" y1="324.92" x2="168.64" y2="318.5"/><line class="cls-3" x1="170.72" y1="324.6" x2="171.85" y2="318.08"/><line class="cls-3" x1="171.52" y1="325.09" x2="175.75" y2="319.9"/><line class="cls-3" x1="173.18" y1="324.82" x2="177.62" y2="322.14"/><line class="cls-3" x1="171.15" y1="327.97" x2="174.68" y2="334.66"/><line class="cls-3" x1="172.54" y1="328.08" x2="177.62" y2="331.88"/><path class="cls-4" d="M95.69,375.32l1.66.1s-1.07,5.46-2.14,6.69-4.87,5.19-10.38,3.37-6.69-5.72-7.23-8.93a18.68,18.68,0,0,1,.75-7.22l.81-.27s1.33-2.78,3.31-3.37,3.21-1.5,4.6-1.45a23.08,23.08,0,0,1,3.86.75l-.7,1.39a8.8,8.8,0,0,0-4.65-.26c-2.68.53-4.66,1.76-5.41,3.74s-1.6,7-.1,9.26S84,384,86.54,384s5,0,6.37-1.71S95.69,375.32,95.69,375.32Z" transform="translate(83.7 -48.15)"/><polygon class="cls-4" points="179.23 325.03 179.34 326.05 180.73 326 180.51 324.87 179.23 325.03"/><path class="cls-4" d="M94.89,371.47l1.28-.33s-1.77-4.33-4.49-5.83l-.7,1.34S94.67,368.84,94.89,371.47Z" transform="translate(83.7 -48.15)"/><path class="cls-4" d="M123.78,378.05s2.19,8.56,7.81,8.93,8.13-1.87,9-4.44,2-6.74.69-10.27-3.42-8.29-6.9-8.78l-.85.38s-3.37-.59-5.19.32v.48l.21.64s2.89-1.12,4.49-.42,1.29.48,1.61.64,2.41,1.44,3.91,5.08,1.6,8.08,1.17,9.2-2.89,5.24-5.29,5.24-5.46-.58-7.28-3.1a16.18,16.18,0,0,1-2.62-8.88c.21-2.14.43-4.87,3.1-7.17l-.32-1.44a11.9,11.9,0,0,0-2.89,4.22c-1,2.41-.91,7.28-.43,8.3l.48,1Z" transform="translate(83.7 -48.15)"/></g></g><g id="レイヤー_2" data-name="レイヤー 2"><polyline class="cls-3" points="283.5 348.36 283.5 257.51 313.14 257.51 313.14 348.36"/><circle class="cls-4" cx="305.49" cy="269.66" r="0.64"/><circle class="cls-4" cx="290.62" cy="269.66" r="0.64"/><path class="cls-4" d="M221.41,321.28a1.13,1.13,0,0,0-.69.27,1,1,0,0,0,0,1.39,1.11,1.11,0,0,0,.64.27,1.15,1.15,0,0,0,.7-.27,1,1,0,0,0,.26-.69,1.12,1.12,0,0,0-.26-.7A.82.82,0,0,0,221.41,321.28Z" transform="translate(83.7 -48.15)"/><path class="cls-4" d="M198.09,304.59v32.53a.65.65,0,0,0,.64.64H230.4a.64.64,0,0,0,.64-.64V304.59a.65.65,0,0,0-.64-.64H198.73A.65.65,0,0,0,198.09,304.59Zm9.63,22.68a1.15,1.15,0,0,1-1.61,0,1.16,1.16,0,0,1,0-1.6,1.17,1.17,0,0,1,1.61,0c.05.05.05.05,0,.11l-.22.21c-.05.05-.05.05-.1,0a.78.78,0,0,0-.48-.21.6.6,0,0,0-.49.21.84.84,0,0,0-.21.48.57.57,0,0,0,.21.48.82.82,0,0,0,.49.22.59.59,0,0,0,.48-.22c0-.05,0-.05.1,0l.22.22v.1Zm.21-3.63v-1a0,0,0,0,0-.05-.05h-1.39a.05.05,0,0,0-.06.05v1a0,0,0,0,1-.05.05H206a0,0,0,0,1,0-.05V321a0,0,0,0,1,0,0h.43a0,0,0,0,1,.05,0v1a.06.06,0,0,0,.06.06h1.39c.05,0,.05-.06.05-.06v-1s.06,0,.06,0h.42a.05.05,0,0,1,.06,0v2.68c0,.05-.06.05-.06.05H208Zm2.46,1.87-.75,1.12v.86a0,0,0,0,1,0,.05h-.32a0,0,0,0,1-.05-.05v-.86l-.75-1.12v-.05l.05-.06h.38a.05.05,0,0,1,0,.06l.48.69c0,.05,0,.05.11,0l.48-.69,0-.06h.38a.05.05,0,0,1,.05.06C210.39,325.46,210.39,325.51,210.39,325.51Zm.16-3.53h1a0,0,0,0,1,.05,0v.43a0,0,0,0,1-.05.05h-1c-.05,0-.05.06-.05.06V323a.05.05,0,0,0,.05.06h1.56a0,0,0,0,1,0,.05v.43a0,0,0,0,1,0,.05H210a.05.05,0,0,1-.06-.05v-2.68c0-.05.06-.05.06-.05h2.14a0,0,0,0,1,0,.05v.43a.05.05,0,0,1,0,.06h-1.56a0,0,0,0,0-.05.05v.43A.26.26,0,0,0,210.55,322Zm2.3,3.8-.21.21c0,.05,0,.05-.11,0a.76.76,0,0,0-.48-.21.58.58,0,0,0-.48.21.78.78,0,0,0-.21.48.57.57,0,0,0,.21.48.79.79,0,0,0,.48.22.58.58,0,0,0,.48-.22c.06-.05.06-.05.11,0l.21.22c.06.05.06.05,0,.1a1.13,1.13,0,0,1-1.6,0,1.13,1.13,0,0,1,1.6-1.6Zm2.63,1.65a.06.06,0,0,1-.06.06h-1.6a.06.06,0,0,1-.06-.06v-2a.06.06,0,0,1,.06-.06h.32c.05,0,.05.06.05.06V327c0,.05,0,.05.06.05h1.12a0,0,0,0,1,0,.05v.32Zm.32-3.79c0,.05-.06.05-.06.05H213.6a0,0,0,0,1,0-.05V321a0,0,0,0,1,0,0H214a0,0,0,0,1,.05,0v2.14s.06,0,.06,0h1.55c.05,0,.05.06.05.06v.43Zm1,3.79a.05.05,0,0,1-.05.06h-.32c-.05,0-.05-.06-.05-.06v-2a.05.05,0,0,1,.05-.06h.32c.05,0,.05.06.05.06Zm.11-3.79V321a0,0,0,0,1,.05,0h.43a.05.05,0,0,1,.06,0v2.14a0,0,0,0,0,0,0h1.55c.05,0,.05.06.05.06v.43a0,0,0,0,1-.05.05h-2.14Zm3,3.79a.06.06,0,0,1-.06.06h-.37l-1-1.23h-.05s-.06,0-.06.05v1.12a.05.05,0,0,1-.05.06h-.37a.06.06,0,0,1-.06-.06v-2a.06.06,0,0,1,.06-.06h.37l1,1.23h0a0,0,0,0,0,.05-.05v-1.12a.06.06,0,0,1,.06-.06h.32c.05,0,.05.06.05.06v2Zm3-1a1.13,1.13,0,0,1,0,.43,1,1,0,0,1-.22.32,1.06,1.06,0,0,1-.74.32,1.12,1.12,0,0,1-.81-.32,1.13,1.13,0,0,1,.81-1.93,1.67,1.67,0,0,1,.48.11,1.41,1.41,0,0,1,.32.22v.1l-.22.22c0,.05,0,.05-.1,0a.66.66,0,0,0-.48-.22.54.54,0,0,0-.49.22.81.81,0,0,0-.21.48.52.52,0,0,0,.21.48.7.7,0,0,0,.43.16.57.57,0,0,0,.38-.16l.16-.16v-.05H222s0-.06,0-.06v-.27a0,0,0,0,1,0-.05h.86a0,0,0,0,1,.05.05v.11Zm-.37-3.15a1.55,1.55,0,0,1-1.13.48,1.49,1.49,0,0,1-1-.38,1.38,1.38,0,0,1-.48-1.12,1.45,1.45,0,0,1,1.49-1.5,1.58,1.58,0,0,1,1.07.43,1.26,1.26,0,0,1,.43,1.12A1.16,1.16,0,0,1,222.54,323.32Zm-.38-4.23a1.36,1.36,0,0,1-1.71-1.34,1.34,1.34,0,0,1,.48-1,.14.14,0,0,0,.06-.1l-.38-.8-.05-.06h-.11a12.54,12.54,0,0,1-6,2.09,12.36,12.36,0,0,1-6-2.09h-.11c-.05,0-.05.06-.05.06l-.37.8c0,.05,0,.1,0,.1a1.34,1.34,0,0,1,.48,1,1.38,1.38,0,0,1-1.71,1.34,1.28,1.28,0,0,1-1-1,1.37,1.37,0,0,1,1.34-1.72h.06s.1,0,.1-.05l1-2.09v0l-.06-.05-.32-.16-.05-.06v-.1l.21-.49c0-.05.11-.05.16-.05l1.45.7.05.05v.11l-.21.48c0,.05-.11.05-.16.05l-.32-.16c-.06,0-.11,0-.11,0l-.22.49c0,.05,0,.1.06.1a13.11,13.11,0,0,0,11.55,0c.06,0,.06-.1.06-.1l-.22-.49s-.1,0-.1,0l-.32.16h-.11a.05.05,0,0,1-.06-.05l-.21-.48v-.11a0,0,0,0,1,.05-.05l1.45-.7a.2.2,0,0,1,.16.05l.21.49v.1a.05.05,0,0,1-.05.06l-.32.16-.05.05v0l1,2.09c0,.05.05.05.11.05h.1a1.39,1.39,0,0,1,1.34,1.72A1.63,1.63,0,0,1,222.16,319.09Z" transform="translate(83.7 -48.15)"/><line class="cls-7" x1="286.5" y1="287.58" x2="286.5" y2="347.61"/><line class="cls-7" x1="310.14" y1="287.58" x2="310.14" y2="347.61"/><path class="cls-3" d="M198.78,404.64a2.53,2.53,0,0,0,2.14-1.4l9.79-21a7.48,7.48,0,0,0,.65-2.89V364.78c0-.86.58-1.18,1.28-.7l2.35,1.5a3.08,3.08,0,0,1,1.29,2.3v12.57a7.66,7.66,0,0,1-.64,2.89l-3.7,8.08a8,8,0,0,1-.64,1.29,13.36,13.36,0,0,0-.64,1.23L204,408.22a2.69,2.69,0,0,1-2.14,1.39H190.7c-.85,0-1.17-.59-.69-1.28l1.5-2.36a3.1,3.1,0,0,1,2.3-1.28h5Z" transform="translate(83.7 -48.15)"/><g class="cls-9"><path class="cls-4" d="M166.47,338.51s-7.49,1-10.65.53-7.22-1.23-7.22-1.23.37,7.49,1.23,9.37,4,8.34,4,8.34l1.13-.21.75.85s.64.91.1,1.45-.85.8-.85.8l1.87,3.64-2.35,9.26,4,10a3.84,3.84,0,0,0,2.83,1c1.55-.22,3.8-.43,3.8-.43l-.32-18.51S167,357,167,355.31,166.47,338.51,166.47,338.51Z" transform="translate(83.7 -48.15)"/><polygon class="cls-4" points="237.01 327.23 234.66 333.43 235.83 336 239.52 335.2 237.01 327.23"/><path class="cls-4" d="M198.94,374.78c.43.22,6.37,2.41,8.56,11.72s-1.92,15.62-5.4,17.28-6.53,1.5-8.72.37-5.24-2.83-6.63-6.42-1.66-4.44-1.66-4.44l.48-.64s-1-6-.11-9.09,2.09-6.32,4.23-7.55l.64,1.72s-3.64,1.71-4.07,7.75,2.36,12.63,4.39,14.13,4.87,3.37,8.35,2.51,5.83-3.48,6.85-8.08-1-11-3.64-14-7.71-4.61-11-2.79l-.59-1.82a10.35,10.35,0,0,1,6.74.06Z" transform="translate(83.7 -48.15)"/><path class="cls-4" d="M150.26,384.63l-1.39.32s-2.3-4.82-4.71-5.83l-.38-.22.91-1.5a11.33,11.33,0,0,1,2.95,2.36C148.33,380.83,150.26,384.63,150.26,384.63Z" transform="translate(83.7 -48.15)"/><path class="cls-4" d="M143.68,376.92l-.86,1.55a10,10,0,0,0-5.35-.74,9.85,9.85,0,0,0-4.81,2,12.77,12.77,0,0,0-3.69,6.48c-.54,3.32.58,9.57,3.26,11.55s5.19,3.91,9.79,2.68,6-3.21,6.42-4.6,1-3.91,1-3.91l2.3.43s-1.72,7.49-6.69,9.47-7.92,1.77-10.75.16-6.8-5-7.49-9.47a22.09,22.09,0,0,1,.8-10.16,1.64,1.64,0,0,0,1.12-.81,21.68,21.68,0,0,1,5.08-4.44C135.12,376.55,139.13,374.41,143.68,376.92Z" transform="translate(83.7 -48.15)"/><polygon class="cls-4" points="234.98 340.28 233.1 340.39 233 339.16 234.66 338.89 234.98 340.28"/><polygon class="cls-4" points="235.35 341.72 235.51 342.47 235.35 343.22 233.21 343.22 233.32 341.72 235.35 341.72"/><path class="cls-5" d="M165.88,392.06l.11,1.39-5.25.81c.06,0,4.34-1,5.14-2.2" transform="translate(83.7 -48.15)"/><path class="cls-6" d="M194.77,353.54l8.51-.05h2.19s1.18-.05,1.18.53-.22,3.38-.27,3.91-1.12,8.29-1.12,8.29l-.38,2.2a.51.51,0,0,1-.53.26c-.38-.05-4.12-.05-5.09,0s-5.24.11-6.42,0-4.54-.05-5-.1-.75-.06-.91-.22-2-7.81-2-7.81l-1.23-7Z" transform="translate(83.7 -48.15)"/><path class="cls-6" d="M206.38,357.66s1.18.64,0,.75-3-.05-5.51,0-8.13.06-8.13.06h-8.19" transform="translate(83.7 -48.15)"/><path class="cls-6" d="M205.74,362.53s.8.22.21.59-3.64.32-3.64.32H185.62" transform="translate(83.7 -48.15)"/><path class="cls-6" d="M203.12,353.49s-.27,4.44-.22,5-.48,5.29-.48,5.29l-.27,4.87" transform="translate(83.7 -48.15)"/><polyline class="cls-6" points="280.13 305.29 280.13 310.32 280.34 315.3 280.34 320.48"/><polyline class="cls-6" points="273.28 305.34 274.73 315.3 275.42 320.59"/><path class="cls-3" d="M197.29,371.57c-.11-1.55.26-2.51,1.49-2.62s1.82,3.75.91,4.55S197.45,373.39,197.29,371.57Z" transform="translate(83.7 -48.15)"/><path class="cls-3" d="M198.78,369s-5.4-.05-5.72.59a2.54,2.54,0,0,0-.22,1.39c0,.21,5.89,2.89,5.89,2.89" transform="translate(83.7 -48.15)"/><path class="cls-3" d="M186,355.68c-.27.54.91.54.91.54.8,0,.75-.32.75-.32s0-.11-.22-.11" transform="translate(83.7 -48.15)"/><line class="cls-3" x1="275.53" y1="324.18" x2="271.36" y2="307.7"/><path class="cls-3" d="M191.45,373s-1,.37-.8,2.4c.11,1.29,4,11.24,4.76,12.58s.32,1.66,0,1.5a5.18,5.18,0,0,1-1.39-2.2c-.59-1.34-3.69-9-4.12-11s.27-3.42,1.07-4" transform="translate(83.7 -48.15)"/><path class="cls-3" d="M190.7,375.64a12.25,12.25,0,0,1,6.69-.16,7.59,7.59,0,0,0,2.3-1.13s-3-1.92-8.24-1.28" transform="translate(83.7 -48.15)"/><path class="cls-3" d="M189.74,376.12c-1.6,1-4.92,4.23-4.49,13.21a16.51,16.51,0,0,0,.59,3.75s-1.61,1-2,0c-.48-1.28-1.66-5.35.1-12,1.07-4.07,4-6.75,6.16-7.55" transform="translate(83.7 -48.15)"/><path class="cls-3" d="M198.94,374.78c2.84,1.34,7,4.55,8.56,11.72,2.52,11.5-3.47,18-8.93,18.4-4.55.32-10.81-1.6-13.43-11.55" transform="translate(83.7 -48.15)"/><path class="cls-3" d="M191.24,377.24a7.65,7.65,0,0,1,4.81-.8s7.44,1,9.53,10.54-2.89,14.93-7.44,15.25c-4.06.27-9.84-1.61-11.66-11.83-1.13-6.31.91-10.59,3.8-12.67" transform="translate(83.7 -48.15)"/><path class="cls-3" d="M191.45,378.05a7.05,7.05,0,0,1,4.6-.81s7,1,8.94,9.9-2.73,14-7,14.34c-3.79.27-9.25-1.5-10.91-11.08-1-5.88.86-9.89,3.53-11.87" transform="translate(83.7 -48.15)"/><path class="cls-3" d="M127.63,382.22a12.47,12.47,0,0,0-1,4.33c-1.28,10.27,5.94,16.21,11.83,16.69,4.55.38,11.5-2.14,13-11.07" transform="translate(83.7 -48.15)"/><path class="cls-3" d="M142.93,378.58a9.55,9.55,0,0,0-5.24-.8A10.28,10.28,0,0,0,128.8,387c-1.07,8.51,4.93,13.49,9.8,13.86,4.11.32,9.68-1.07,10.8-8.93" transform="translate(83.7 -48.15)"/><path class="cls-3" d="M148.87,385a10.72,10.72,0,0,0-4.92-5.89l-.22-.1" transform="translate(83.7 -48.15)"/><path class="cls-3" d="M149.56,388.48a9.47,9.47,0,0,0-.16-1.29" transform="translate(83.7 -48.15)"/><path class="cls-3" d="M149.51,391.37a4.69,4.69,0,0,0,.05-.86,2.32,2.32,0,0,1,.06-.64" transform="translate(83.7 -48.15)"/><path class="cls-3" d="M142.61,379.17a9.25,9.25,0,0,0-4.87-.75,9.67,9.67,0,0,0-8.35,8.72c-1,8,4.66,12.63,9.21,13,3.85.32,9-1,10.11-8.29" transform="translate(83.7 -48.15)"/><path class="cls-3" d="M148.17,385a9.58,9.58,0,0,0-4.49-5.25l-.32-.16" transform="translate(83.7 -48.15)"/><path class="cls-3" d="M148.92,388.59a5.18,5.18,0,0,0-.16-1.29" transform="translate(83.7 -48.15)"/><path class="cls-3" d="M148.87,391.26a4.3,4.3,0,0,0,0-.8,1.77,1.77,0,0,1,.05-.54" transform="translate(83.7 -48.15)"/><path class="cls-3" d="M152.56,386.93c.05.43.16.85.21,1.28" transform="translate(83.7 -48.15)"/><path class="cls-3" d="M145.34,375.91a14.64,14.64,0,0,1,6.52,8.34" transform="translate(83.7 -48.15)"/><path class="cls-3" d="M143.89,376.87c-4.76-2.3-11.34-1-15.19,5,0,0-2,1-1.34-.43a6.93,6.93,0,0,1,.75-1.39,12.08,12.08,0,0,1,11.72-5.83,14.54,14.54,0,0,1,4.76,1.23" transform="translate(83.7 -48.15)"/><path class="cls-3" d="M150.26,384.63a14.3,14.3,0,0,0-5-7,4.78,4.78,0,0,0-.64-.43" transform="translate(83.7 -48.15)"/><path class="cls-3" d="M151.27,388.43A9.53,9.53,0,0,0,151,387" transform="translate(83.7 -48.15)"/><path class="cls-3" d="M152.88,389.87v1s-.75.11-1.18-1" transform="translate(83.7 -48.15)"/><polyline class="cls-3" points="212.24 331.29 211.44 330.97 210.47 332.79 210.9 333.43"/><path class="cls-3" d="M139.88,388.32s4.92-.59,8.93-1c1.23-.16,2.36-.27,3.27-.37,3.8-.48,2.62,3.37,5.29,5.83s8.24,1.39,9.53-2.41c1.5-4.44-2.62-8.45-7.06-7.81s-20.66,4.87-20.66,4.87" transform="translate(83.7 -48.15)"/><path class="cls-3" d="M138.43,390.83A2,2,0,0,0,140,389.5a2.18,2.18,0,0,0-2-2.52,2,2,0,0,0-1.66,2.52C136.62,390.57,137.47,390.67,138.43,390.83Z" transform="translate(83.7 -48.15)"/><path class="cls-3" d="M138,390.4a1.56,1.56,0,0,0,1.23-1,1.64,1.64,0,0,0-1.55-1.93,1.58,1.58,0,0,0-1.28,1.93C136.62,390.19,137.36,390.3,138,390.4Z" transform="translate(83.7 -48.15)"/><path class="cls-3" d="M161.28,383.29s3.1,1.12,3.64,3.74,0,5.41-3.64,6.05" transform="translate(83.7 -48.15)"/><line class="cls-3" x1="238.67" y1="340.12" x2="223.79" y2="340.76"/><polyline class="cls-3" points="239.31 341.72 236.63 341.72 223.58 341.72"/><polyline class="cls-3" points="241.07 344.61 232.46 343.7 222.14 342.69"/><polyline class="cls-3" points="240.49 343.92 232.57 343.12 223.21 342.2"/><path class="cls-5" d="M153.58,396.61l7.27-7.7s.32-.7-.8-.81l-8,8.46" transform="translate(83.7 -48.15)"/><path class="cls-5" d="M157.91,396.72a1.79,1.79,0,0,1,0,1.5h-7.06a3.75,3.75,0,0,1,0-1.66Z" transform="translate(83.7 -48.15)"/><path class="cls-3" d="M160.05,389.76a1.32,1.32,0,0,0,1.6-.05,1.52,1.52,0,0,0-.26-2.68c-1.29-.69-2.46,1-2,1.77" transform="translate(83.7 -48.15)"/><path class="cls-3" d="M159.84,390.14a1.76,1.76,0,0,0,2.08-.06,2,2,0,0,0-.32-3.47c-1.71-.91-3.26,1.23-2.67,2.67" transform="translate(83.7 -48.15)"/><path class="cls-5" d="M144.37,356s6.85.05,8.83-.27,2.25-.75,2.52.54.1,2.57-3.38,3-9.14,2.47-9.73,1.5a9.2,9.2,0,0,1-.86-4.55C141.86,355,144.37,356,144.37,356Z" transform="translate(83.7 -48.15)"/><polygon class="cls-5" points="233.53 316.69 232.25 312.51 227.32 312.83 236.58 310.96 233.85 312.03 235.03 316.37 233.53 316.69"/><path class="cls-3" d="M156,383.29l-6.36-18.4a3.84,3.84,0,0,0,2.24-.59l6.26,16.64a2.59,2.59,0,0,0,2.3,1.28,54,54,0,0,0,15.89-2.52c3.11-1.12,12.2-13.37,12.2-13.37l-2.57-10.49" transform="translate(83.7 -48.15)"/><line class="cls-3" x1="233.64" y1="317.7" x2="222.03" y2="338.89"/><line class="cls-3" x1="233.96" y1="318.83" x2="222.72" y2="339.16"/><path class="cls-3" d="M165.61,384.52s9.15-1,12.79-2.94,11.07-12.2,11.07-12.2l1,3.53" transform="translate(83.7 -48.15)"/><path class="cls-3" d="M191.72,371.63" transform="translate(83.7 -48.15)"/><path class="cls-3" d="M193.43,372.75a1.89,1.89,0,0,0-1.71-1" transform="translate(83.7 -48.15)"/><line class="cls-3" x1="235.56" y1="342.1" x2="235.4" y2="343.44"/><path class="cls-3" d="M173.85,334h.86a.53.53,0,0,1,.43.64,6.37,6.37,0,0,0,0,2.52c.05.32-.11.64-.38.64l-.37.05" transform="translate(83.7 -48.15)"/><path class="cls-3" d="M175.19,334.39h0a.37.37,0,0,1,.37.43,5.79,5.79,0,0,0,0,2.14h0a.38.38,0,0,1-.26.48h-.11" transform="translate(83.7 -48.15)"/><line class="cls-3" x1="284.14" y1="331.18" x2="279.6" y2="341.19"/><line class="cls-3" x1="287.35" y1="335.14" x2="279.6" y2="341.19"/><line class="cls-3" x1="288.9" y1="340.12" x2="279.6" y2="341.19"/><line class="cls-3" x1="289.12" y1="344.18" x2="279.6" y2="341.19"/><line class="cls-3" x1="288.05" y1="348.46" x2="279.6" y2="341.19"/><line class="cls-3" x1="285.85" y1="351.51" x2="279.6" y2="341.19"/><line class="cls-3" x1="281.41" y1="353.33" x2="279.6" y2="341.19"/><line class="cls-3" x1="276.65" y1="352.26" x2="279.6" y2="341.19"/><line class="cls-3" x1="273.12" y1="348.79" x2="279.6" y2="341.19"/><line class="cls-3" x1="271.46" y1="344.99" x2="279.11" y2="341.35"/><line class="cls-3" x1="270.66" y1="340.92" x2="278.69" y2="340.92"/><line class="cls-3" x1="270.98" y1="336.16" x2="278.31" y2="340.44"/><line class="cls-3" x1="272.48" y1="332.31" x2="277.56" y2="338.67"/><line class="cls-3" x1="280.34" y1="329.2" x2="279.6" y2="341.19"/><line class="cls-3" x1="276.28" y1="329.63" x2="279.27" y2="340.12"/><line class="cls-3" x1="222.14" y1="342.69" x2="223.21" y2="352.05"/><line class="cls-3" x1="221.39" y1="342.69" x2="218.82" y2="350.93"/><line class="cls-3" x1="220.8" y1="342.31" x2="215.13" y2="347.72"/><line class="cls-3" x1="220.1" y1="341.35" x2="213.15" y2="342.47"/><line class="cls-3" x1="220.1" y1="340.39" x2="213.25" y2="338.3"/><line class="cls-3" x1="220.53" y1="339.48" x2="215.23" y2="333.81"/><line class="cls-3" x1="221.44" y1="338.89" x2="219.67" y2="330.81"/><line class="cls-3" x1="222.35" y1="338.51" x2="223.79" y2="330.22"/><line class="cls-3" x1="223.37" y1="339.16" x2="228.77" y2="332.52"/><line class="cls-3" x1="225.88" y1="338.41" x2="231.12" y2="335.36"/><line class="cls-3" x1="222.88" y1="342.79" x2="227.38" y2="351.25"/><line class="cls-3" x1="224.65" y1="342.95" x2="231.12" y2="347.72"/><path class="cls-3" d="M170.86,294.05A23.15,23.15,0,0,1,169,299.4a4.47,4.47,0,0,1-4,2.62s-1.5,2.52-1.13,3.11" transform="translate(83.7 -48.15)"/><path class="cls-3" d="M158.77,295.55s.26,2.62,1.12,3.48L158,303.68" transform="translate(83.7 -48.15)"/><path class="cls-3" d="M158.93,292.07s-.27-.8-1-.16a2.76,2.76,0,0,0-.75,2.78,3.5,3.5,0,0,0,1.61,1.39" transform="translate(83.7 -48.15)"/><path class="cls-5" d="M157.75,292.23s-.64-4.28,1.55-7.11,3.26-2,3.26-2,3.86-1.5,6.53.32,5,6.58,3.8,8.77a12,12,0,0,1-2.41,3.32l.32-1.23c-1.17.05-4.28-2.62-4.28-2.62a5,5,0,0,1-3-.65c-1.29-.85-1.34-3.37-1.34-3.37L159,291.86C158.93,291.8,158,291.54,157.75,292.23Z" transform="translate(83.7 -48.15)"/><path class="cls-3" d="M166.31,293.89a3.77,3.77,0,0,0-.91,2.35" transform="translate(83.7 -48.15)"/><path class="cls-3" d="M165.4,299.13a4.11,4.11,0,0,1-2.35-.53" transform="translate(83.7 -48.15)"/><circle class="cls-4" cx="246.37" cy="245.69" r="0.37"/><circle class="cls-4" cx="251.35" cy="246.92" r="0.37"/><path class="cls-3" d="M164,292.23a1.92,1.92,0,0,0-1.23-.16" transform="translate(83.7 -48.15)"/><path class="cls-3" d="M164,300a6.44,6.44,0,0,0-1.12-.38" transform="translate(83.7 -48.15)"/><path class="cls-3" d="M168.72,294.05a2.06,2.06,0,0,0-1.07-.27" transform="translate(83.7 -48.15)"/><path class="cls-3" d="M152.88,308.07s5.67,13.64,6.63,15.35,10.81,10.11,10.81,10.11" transform="translate(83.7 -48.15)"/><path class="cls-3" d="M170.48,310.42" transform="translate(83.7 -48.15)"/><path class="cls-3" d="M148.87,312.78s-1.77,14.65-1.45,19.84l0,4.82s8.72,2.51,14.93,1.71,5.13-1.5,5.13-1.5" transform="translate(83.7 -48.15)"/><line class="cls-3" x1="255.47" y1="266.45" x2="253.59" y2="269.44"/><path class="cls-3" d="M160.8,343.38s3.58,15.46,3.85,20.33.43,16.32.43,16.32v1.87" transform="translate(83.7 -48.15)"/><path class="cls-3" d="M148.6,337.81s-.32,6.1,1.23,9.37,4,8.34,4,8.34" transform="translate(83.7 -48.15)"/><polyline class="cls-3" points="238.67 310.32 240.49 313.69 241.77 328.3 242.36 333.43"/><path class="cls-3" d="M166.47,338.51s1,14,0,18.51-1.77,6.74-1.77,6.74" transform="translate(83.7 -48.15)"/><path class="cls-3" d="M165.08,393.13a38.57,38.57,0,0,0,9.15,2c4.06.21,4.54.91,4.87,1.44s.85,2.14,0,2.46-4.23,1.5-6.75,1.13-6.9.21-9.14.05-2.63.91-3.16-.86,0-5.45,0-5.45" transform="translate(83.7 -48.15)"/><line class="cls-3" x1="240.49" y1="313.69" x2="238.24" y2="322.78"/><line class="cls-3" x1="237.01" y1="327.49" x2="234.65" y2="333.81"/><path class="cls-4" d="M148,307.1s-2.46,1.88-3.48,10.22-2.83,16.64-1.6,17.82,4.44,1.28,4.44,1.28a93.1,93.1,0,0,1,.32-12.52c.64-5.08,1-11.45,1-11.45Z" transform="translate(83.7 -48.15)"/><path class="cls-5" d="M156.3,316.15a46.79,46.79,0,0,0-.48-13.65s-.91-1.49-2.94.11a25.23,25.23,0,0,1,.54,6.74Z" transform="translate(83.7 -48.15)"/><polygon class="cls-5" points="236.85 275.33 231.12 286.62 231.12 284.48 236.31 274.21 236.85 275.33"/><path class="cls-4" d="M169.89,306.14s1.77,11.56-1.66,20.06c0,0,.54-19.42-1.81-21.61A2.5,2.5,0,0,1,169.89,306.14Z" transform="translate(83.7 -48.15)"/><path class="cls-3" d="M170.11,333.59s3.53-.48,3.69.21.8,2.73.48,4.07-1.12.53-1.12.53-.27,1.18-1.82.27a1.52,1.52,0,0,1-2,.21s-.54,1-1.5-.48a6,6,0,0,1-1-3.31C167,333.16,170.11,333.59,170.11,333.59Z" transform="translate(83.7 -48.15)"/><path class="cls-3" d="M174.76,338s.48.81-.27,1.18a2.84,2.84,0,0,1-1.71,0" transform="translate(83.7 -48.15)"/><path class="cls-3" d="M172.19,334.6c.27.11.86,4,.86,4" transform="translate(83.7 -48.15)"/><path class="cls-3" d="M170.32,334.6c.27.11.86,4,.86,4" transform="translate(83.7 -48.15)"/><path class="cls-3" d="M168.82,335.09c.27.1.86,4,.86,4" transform="translate(83.7 -48.15)"/><line class="cls-3" x1="251.99" y1="272.65" x2="252.1" y2="283.73"/><path class="cls-3" d="M169.41,318s1.61,7.38,2.89,9.52,13.38,7.7,13.38,7.7l1.39-3.37s-10-6.36-10.28-6.58-4-15.35-4.86-17.33-7.6-4.07-7.6-4.07l1.18.8s.8,3.53-3.48,3c-4.5-.54-5.08-3.21-4.87-4.6.11-.64,1.18-.7,1.18-.7a42.55,42.55,0,0,1-4.71.32c-2.25,0-5.08.75-5.57,4.5a13.4,13.4,0,0,0,1.56,7.33s3.47,9.9,5.29,12.36,12.31,10.21,12.31,10.21" transform="translate(83.7 -48.15)"/><path class="cls-3" d="M185.78,334.76c1.07.59,2.78.7,3.59-.37s1.28-1.07,1.28-1.07a6.81,6.81,0,0,1,2.78,1.12c1.23.86,1.29.06.86-.59a8.59,8.59,0,0,0-2.14-1.65l-.27-.43" transform="translate(83.7 -48.15)"/><path class="cls-3" d="M186.8,332.14s3.1-1.82,4.17-1.82a14.25,14.25,0,0,1,3.16.7,6.3,6.3,0,0,1,1.66,1.76c.75,1.18.64,1,.16,1.82s-.27,1.13-.7.81-.53-1.88-.53-1.88l-1.39-1.44-.43.32" transform="translate(83.7 -48.15)"/><path class="cls-3" d="M191.13,333.43a8.07,8.07,0,0,0-.48,1.66c-.05.58-2.83.26-2.83.26" transform="translate(83.7 -48.15)"/><path class="cls-5" d="M175.51,334.82v1.28h.11a4.2,4.2,0,0,1,3.37,1.71l.16.22a3.2,3.2,0,0,0,2.57,1.28h3.21l-1.45.86a2,2,0,0,0-.91,2.08c.75,3.59,3,12.68,3.53,13.81h1.39l-3.31-13.43a1.21,1.21,0,0,1,.59-1.39l2.72-1.55s4.12-2.68,4.18-2.68,3-1.5,1.87-2.67a4.25,4.25,0,0,0-2.51-.27l-.65,1.23h1l.11-.16c-.64,1.18-3.91,2.67-3.91,2.67h-5.51a1.68,1.68,0,0,1-1.18-.48l-2-1.92a2.57,2.57,0,0,0-1.71-.7l-1.71.11" transform="translate(83.7 -48.15)"/><path class="cls-3" d="M179.47,397.68a30.64,30.64,0,0,1-6.74,1.39c-3.32.22-9.9,0-9.9,0h-2.89" transform="translate(83.7 -48.15)"/><line class="cls-3" x1="237.54" y1="341.83" x2="237.12" y2="343.65"/><path class="cls-3" d="M153.47,392.33l-.16,3.48s-.7,2.57-2.2,1.82-1.55-1.07-1.55-1.07" transform="translate(83.7 -48.15)"/></g></g><text class="cls-10" transform="translate(392.7 34.06)">借りる</text><text class="cls-10" transform="translate(518.92 415.61)">漕ぐ</text><text class="cls-10" transform="translate(88.82 415.61)">返す</text><path class="cls-11" d="M119.73,147.09a2.15,2.15,0,0,0-1.25,1.9l-.12,6A46.86,46.86,0,0,0,92.44,244a2.15,2.15,0,0,0,2.92-1.19l7.69-20.4a2.14,2.14,0,0,0-1.18-2.74l-.5-.22a22.77,22.77,0,0,1-5.73-4.12,47.22,47.22,0,0,1-7.39-9.2,32.38,32.38,0,0,1-2.19-4.16,11.61,11.61,0,0,1-.54-1.54,3,3,0,0,1-.1-.44,32.41,32.41,0,0,1,14.8-15,27.81,27.81,0,0,1,18.38-2.33l-.24,9.88a2.14,2.14,0,0,0,3.43,1.77L149.6,173.4a2.12,2.12,0,0,0,.86-1.67,2.14,2.14,0,0,0-.79-1.71L122,147.38A2.16,2.16,0,0,0,119.73,147.09Zm25.1,24.52-22.08,16.53.18-7.17a2.15,2.15,0,0,0-1.54-2.11A31.93,31.93,0,0,0,98.33,181a36.82,36.82,0,0,0-17,17.59s0,0,0,.06v0a37.56,37.56,0,0,0-3.44,13.37,2.14,2.14,0,0,0,4.28.28,32.73,32.73,0,0,1,1.1-6.5c.28.53.58,1.08.9,1.63a52.55,52.55,0,0,0,6.66,8.94,32.14,32.14,0,0,0,7.6,6.24L92.18,239a42.57,42.57,0,0,1,27.87-79.39,2.17,2.17,0,0,0,2.55-2.07l.08-4.07Z" transform="translate(83.7 -48.15)"/><path class="cls-11" d="M221.17,467.63a2.15,2.15,0,0,0,2.25.32l5.52-2.43a46.86,46.86,0,0,0,91.54-14.09,2.13,2.13,0,0,0-2.3-2.14l-21.74,1.64a2.15,2.15,0,0,0-2,2.23c0,.18,0,.36,0,.54a22.79,22.79,0,0,1-1.32,6.94,46.53,46.53,0,0,1-5.21,10.58,31.25,31.25,0,0,1-2.85,3.75,13.37,13.37,0,0,1-1.16,1.14l-.36.28a32.51,32.51,0,0,1-19.89-7.06,27.79,27.79,0,0,1-9.87-15.67l9.06-4a2.14,2.14,0,0,0,1.28-1.88,2.17,2.17,0,0,0-1.13-2l-30.63-16.4a2.13,2.13,0,0,0-3.09,1.36l-8.82,34.66A2.16,2.16,0,0,0,221.17,467.63Zm11.61-33.12,24.31,13-6.56,2.87a2.16,2.16,0,0,0-1.27,2.29,31.91,31.91,0,0,0,11.73,20,36.77,36.77,0,0,0,23.15,8h.08a37.75,37.75,0,0,0,13.57-2.53,2.15,2.15,0,0,0-1.56-4,32.33,32.33,0,0,1-6.35,1.75c.36-.48.73-1,1.09-1.5a51.92,51.92,0,0,0,5.29-9.81,32.15,32.15,0,0,0,2.45-9.53l17.42-1.31A42.57,42.57,0,0,1,232.4,462a2.17,2.17,0,0,0-3-1.43l-3.72,1.65Z" transform="translate(83.7 -48.15)"/><path class="cls-11" d="M452.71,228.93a2.13,2.13,0,0,0-1-2l-5.16-3.13a46.85,46.85,0,0,0-64-66.9,2.16,2.16,0,0,0-.43,3.12l13.82,16.86a2.14,2.14,0,0,0,3,.35l.44-.32A22.57,22.57,0,0,1,405.7,174a47.34,47.34,0,0,1,11.66-1.8,30.6,30.6,0,0,1,4.71.19,13.06,13.06,0,0,1,1.6.29l.43.14a32.52,32.52,0,0,1,5.63,20.33,27.74,27.74,0,0,1-7.18,17.08l-8.43-5.14a2.14,2.14,0,0,0-3.25,2.08l4.12,34.5a2.15,2.15,0,0,0,1,1.58,2.13,2.13,0,0,0,1.87.18l33.46-12.66A2.15,2.15,0,0,0,452.71,228.93Zm-33.78,9.48L415.65,211l6.12,3.74a2.16,2.16,0,0,0,2.6-.28A31.91,31.91,0,0,0,434,193.42a36.81,36.81,0,0,0-6.71-23.56l0-.05v0a37.51,37.51,0,0,0-9.86-9.66A2.15,2.15,0,0,0,415,163.7a32.94,32.94,0,0,1,5.08,4.2c-.6,0-1.22,0-1.87,0a52.2,52.2,0,0,0-11.07,1.29,32.35,32.35,0,0,0-9.2,3.46l-11.07-13.51a42.56,42.56,0,0,1,54.81,63.83,2.19,2.19,0,0,0-.48,1.74,2.15,2.15,0,0,0,1,1.49l3.49,2.11Z" transform="translate(83.7 -48.15)"/></svg>