<svg id="レイヤー_1" data-name="レイヤー 1" xmlns="http://www.w3.org/2000/svg" viewBox="0 0 159.95 9.14"><defs><style>.cls-1{fill:#4b4b4b;}</style></defs><title>bike39</title><path class="cls-1" d="M48.76,210.17a1.32,1.32,0,0,0-.44.08L47.56,209c.22-.13.72-.49.57-.9s-.88-.44-1.49-.44h-.36a.22.22,0,0,0-.13.06.24.24,0,0,0,0,.14.19.19,0,0,0,.2.19h.3a2.24,2.24,0,0,1,1.17.19c0,.09-.19.3-.42.44l-.08,0-.1.06v.34l.39.62,0,0-.82.53-.55-.84h-.45l.66,1h0l-.21.13a1.23,1.23,0,0,0-1-.48,1.25,1.25,0,1,0,1.25,1.25,1.1,1.1,0,0,0-.06-.37l.57-.37.8-.51h0l.18.28a1.26,1.26,0,0,0-.48,1,1.25,1.25,0,1,0,1.25-1.25Zm0,2a.75.75,0,0,1-.75-.74.76.76,0,0,1,.24-.55l.5.81.32-.17h0l-.38-.6-.12-.2.17,0a.75.75,0,0,1,0,1.49Zm-3-1.24-.68.44.12.18.12.19.44-.28.18-.12a.28.28,0,0,1,0,.09.75.75,0,0,1-.75.74.75.75,0,1,1,.54-1.26Z" transform="translate(-38.09 -204.05)"/><path class="cls-1" d="M45.69,209.35h.64l.31,0v-.4s0-.07,0-.07l-1.35-.19h0a.13.13,0,0,0-.13.07h0v.58A2.29,2.29,0,0,0,45.69,209.35Z" transform="translate(-38.09 -204.05)"/><rect class="cls-1" x="49.38" y="0.64" width="0.51" height="1.29"/><polygon class="cls-1" points="49.1 3.22 48.99 4.12 50.27 4.12 50.16 3.22 49.1 3.22"/><polygon class="cls-1" points="50.9 4.38 48.37 4.38 48.37 4.92 48.67 5.41 50.62 5.41 50.9 4.94 50.9 4.38"/><polygon class="cls-1" points="50.41 2.19 48.86 2.19 48.86 2.59 49.1 2.96 50.18 2.96 50.41 2.6 50.41 2.19"/><path class="cls-1" d="M87.72,212.08s.27.49.39.74H89l-.42-3.1H86.86l-.42,3.1h.89C87.44,212.57,87.72,212.08,87.72,212.08Z" transform="translate(-38.09 -204.05)"/><path class="cls-1" d="M72.7,206.68H68.3L67,209.16h.7v3.54h5.6v-3.54H74Zm.16,5.52H68.14v-3h4.72Z" transform="translate(-38.09 -204.05)"/><rect class="cls-1" x="31.12" y="5.64" width="0.73" height="0.84"/><rect class="cls-1" x="32.99" y="5.64" width="0.73" height="0.84"/><path class="cls-1" d="M153,205.18v8h2.63v-1.93h.79v1.93H159v-8Zm1.84,6.9H154v-.83h.79Zm0-1.65H154v-.83h.79Zm0-1.66H154v-.83h.79Zm0-1.66H154v-.82h.79Zm1.58,3.32h-.79v-.83h.79Zm0-1.66h-.79v-.83h.79Zm0-1.66h-.79v-.82h.79Zm1.57,5h-.79v-.83H158Zm0-1.65h-.79v-.83H158Zm0-1.66h-.79v-.83H158Zm0-1.66h-.79v-.82H158Z" transform="translate(-38.09 -204.05)"/><path class="cls-1" d="M193,204.05v9.13h2.19V211h.66v2.2H198v-9.13Zm1.53,7.87h-.65V211h.65Zm0-1.89h-.65v-.94h.65Zm0-1.89h-.65v-.94h.65Zm0-1.89h-.65v-.94h.65Zm1.32,3.78h-.66v-.94h.66Zm0-1.89h-.66v-.94h.66Zm0-1.89h-.66v-.94h.66Zm1.31,5.67h-.66V211h.66Zm0-1.89h-.66v-.94h.66Zm0-1.89h-.66v-.94h.66Zm0-1.89h-.66v-.94h.66Z" transform="translate(-38.09 -204.05)"/><path class="cls-1" d="M40,207.79a.53.53,0,1,0-.52-.52A.53.53,0,0,0,40,207.79Z" transform="translate(-38.09 -204.05)"/><path class="cls-1" d="M41.91,206.73a.22.22,0,0,0-.32.05l-.61.82a.83.83,0,0,1-.67.33h-.54a.82.82,0,0,1-.66-.33l-.61-.82a.22.22,0,0,0-.32-.05.23.23,0,0,0,0,.32l1.18,1.62a.35.35,0,0,1,.08.24v3.78a.31.31,0,0,0,.61,0v-2.27h.09v2.27a.31.31,0,0,0,.3.3.3.3,0,0,0,.3-.3v-3.78a.41.41,0,0,1,.08-.24L42,207.05A.23.23,0,0,0,41.91,206.73Z" transform="translate(-38.09 -204.05)"/><path class="cls-1" d="M110.9,209.3a.43.43,0,0,0,.43-.43.44.44,0,0,0-.43-.44.44.44,0,0,0-.44.44A.44.44,0,0,0,110.9,209.3Z" transform="translate(-38.09 -204.05)"/><path class="cls-1" d="M113,209.3a.44.44,0,0,0,.44-.43.44.44,0,0,0-.44-.44.44.44,0,0,0-.43.44A.43.43,0,0,0,113,209.3Z" transform="translate(-38.09 -204.05)"/><path class="cls-1" d="M113.76,211.48a.19.19,0,0,0,0-.12V209.9a.49.49,0,0,0-.44-.44h-.55a.6.6,0,0,0-.54.34l-.33.73-.33-.73a.6.6,0,0,0-.54-.34h-.55a.49.49,0,0,0-.44.44v1.46a.18.18,0,0,0,.19.19h.13l.07,1.25a.2.2,0,0,0,.21.2h.44a.2.2,0,0,0,.2-.2l.07-1.25,0-1.17.38.83a.14.14,0,0,0,.26,0l.38-.83,0,.67a2.41,2.41,0,0,0-.52,1.13h.63l.09.64a.15.15,0,0,0,.15.15h.32a.14.14,0,0,0,.15-.15l.1-.64H114A1.82,1.82,0,0,0,113.76,211.48Z" transform="translate(-38.09 -204.05)"/><path class="cls-1" d="M119,211.48l-.5-.55a.16.16,0,0,0-.11-.05h-.53v-.22h.54a.06.06,0,0,0,.06-.06v-.21a.06.06,0,0,0-.06-.06h-.54v-.18h.54a.06.06,0,0,0,.06-.06v-.21a.06.06,0,0,0-.06-.06h-.54v-.18h.6v-.29a.18.18,0,0,0-.17-.17h-3a.17.17,0,0,0-.16.17v.29h.59v.18h-.53a.06.06,0,0,0-.06.06v.21a.06.06,0,0,0,.06.06h.53v.18h-.53a.05.05,0,0,0-.06.06v.21a.06.06,0,0,0,.06.06h.53v.22h-.53a.16.16,0,0,0-.11.05l-.5.55a.18.18,0,0,0,0,.1v.25H119v-.25A.13.13,0,0,0,119,211.48Zm-1.34-.6h-1.73v-.22h1.73v.22Zm0-.55h-1.73v-.18h1.73v.18Zm0-.51h-1.73v-.18h1.73v.18Z" transform="translate(-38.09 -204.05)"/><rect class="cls-1" x="80.38" y="7.91" width="0.3" height="0.82"/><rect class="cls-1" x="76.66" y="7.91" width="0.3" height="0.82"/><rect class="cls-1" x="80.01" y="7.9" width="0.24" height="0.34"/><rect class="cls-1" x="77.09" y="7.9" width="0.24" height="0.34"/></svg>