<?xml version="1.0" encoding="utf-8"?>
<!-- Generator: Adobe Illustrator 16.0.0, SVG Export Plug-In . SVG Version: 6.00 Build 0)  -->
<!DOCTYPE svg PUBLIC "-//W3C//DTD SVG 1.1//EN" "http://www.w3.org/Graphics/SVG/1.1/DTD/svg11.dtd">
<svg version="1.1" id="レイヤー_1" xmlns="http://www.w3.org/2000/svg" xmlns:xlink="http://www.w3.org/1999/xlink" x="0px"
	 y="0px" width="419.333px" height="141.793px" viewBox="0 0 419.333 141.793" enable-background="new 0 0 419.333 141.793"
	 xml:space="preserve">
<g>
	<defs>
		<rect id="SVGID_1_" width="419.333" height="141.793"/>
	</defs>
	<clipPath id="SVGID_2_">
		<use xlink:href="#SVGID_1_"  overflow="visible"/>
	</clipPath>
	
		<path clip-path="url(#SVGID_2_)" fill="none" stroke="#4EBB7C" stroke-width="3.5" stroke-linecap="round" stroke-linejoin="round" stroke-miterlimit="10" d="
		M73,125.939c8.038,0,8.038,4.024,16.077,4.024s8.039-4.024,16.078-4.024c8.039,0,8.039,4.024,16.077,4.024
		s8.038-4.024,16.077-4.024c8.037,0,8.037,4.024,16.074,4.024c8.037,0,8.037-4.024,16.074-4.024c8.039,0,8.039,4.024,16.077,4.024
		c8.039,0,8.039-4.024,16.079-4.024c8.038,0,8.038,4.024,16.077,4.024c8.038,0,8.038-4.024,16.077-4.024s8.039,4.024,16.078,4.024
		c8.04,0,8.04-4.024,16.08-4.024c8.038,0,8.038,4.024,16.076,4.024c8.041,0,8.041-4.024,16.081-4.024
		c8.042,0,8.042,4.024,16.083,4.024c8.042,0,8.042-4.024,16.084-4.024s8.042,4.024,16.084,4.024"/>
	
		<path clip-path="url(#SVGID_2_)" fill="none" stroke="#4EBB7C" stroke-width="3.5" stroke-linecap="round" stroke-linejoin="round" stroke-miterlimit="10" d="
		M73,136.018c8.038,0,8.038,4.025,16.077,4.025s8.039-4.025,16.078-4.025c8.039,0,8.039,4.025,16.077,4.025
		s8.038-4.025,16.077-4.025c8.037,0,8.037,4.025,16.074,4.025c8.037,0,8.037-4.025,16.074-4.025c8.039,0,8.039,4.025,16.077,4.025
		c8.039,0,8.039-4.025,16.079-4.025c8.038,0,8.038,4.025,16.077,4.025c8.038,0,8.038-4.025,16.077-4.025s8.039,4.025,16.078,4.025
		c8.04,0,8.04-4.025,16.08-4.025c8.038,0,8.038,4.025,16.076,4.025c8.041,0,8.041-4.025,16.081-4.025
		c8.042,0,8.042,4.025,16.083,4.025c8.042,0,8.042-4.025,16.084-4.025s8.042,4.025,16.084,4.025"/>
	
		<polyline clip-path="url(#SVGID_2_)" fill="none" stroke="#343C48" stroke-width="3.5" stroke-linecap="round" stroke-linejoin="round" stroke-miterlimit="10" points="
		63.313,96.43 63.313,20.429 108.572,20.429 108.572,96.43 	"/>
	
		<polyline clip-path="url(#SVGID_2_)" fill="none" stroke="#343C48" stroke-width="3.5" stroke-linecap="round" stroke-linejoin="round" stroke-miterlimit="10" points="
		1.75,96.43 1.75,60.235 26.494,52.035 51.239,60.235 51.239,96.43 	"/>
	
		<line clip-path="url(#SVGID_2_)" fill="none" stroke="#343C48" stroke-width="3.5" stroke-linecap="round" stroke-linejoin="round" stroke-miterlimit="10" x1="73.583" y1="33.902" x2="108.572" y2="33.902"/>
	
		<line clip-path="url(#SVGID_2_)" fill="none" stroke="#343C48" stroke-width="3.5" stroke-linecap="round" stroke-linejoin="round" stroke-miterlimit="10" x1="73.583" y1="49.18" x2="108.572" y2="49.18"/>
	
		<line clip-path="url(#SVGID_2_)" fill="none" stroke="#343C48" stroke-width="3.5" stroke-linecap="round" stroke-linejoin="round" stroke-miterlimit="10" x1="73.583" y1="64.458" x2="108.572" y2="64.458"/>
	
		<line clip-path="url(#SVGID_2_)" fill="none" stroke="#343C48" stroke-width="3.5" stroke-linecap="round" stroke-linejoin="round" stroke-miterlimit="10" x1="73.583" y1="79.737" x2="108.572" y2="79.737"/>
	
		<polyline clip-path="url(#SVGID_2_)" fill="none" stroke="#343C48" stroke-width="3.5" stroke-linecap="round" stroke-linejoin="round" stroke-miterlimit="10" points="
		320.812,96.43 320.812,20.429 376.083,20.429 376.083,96.43 	"/>
	
		<line clip-path="url(#SVGID_2_)" fill="none" stroke="#343C48" stroke-width="3.5" stroke-linecap="round" stroke-linejoin="round" x1="331.083" y1="33.902" x2="337.083" y2="33.902"/>
	
		<line clip-path="url(#SVGID_2_)" fill="none" stroke="#343C48" stroke-width="3.5" stroke-linecap="round" stroke-linejoin="round" stroke-dasharray="7.663,7.663" x1="344.746" y1="33.902" x2="356.24" y2="33.902"/>
	
		<line clip-path="url(#SVGID_2_)" fill="none" stroke="#343C48" stroke-width="3.5" stroke-linecap="round" stroke-linejoin="round" x1="360.072" y1="33.902" x2="366.072" y2="33.902"/>
	
		<line clip-path="url(#SVGID_2_)" fill="none" stroke="#343C48" stroke-width="3.5" stroke-linecap="round" stroke-linejoin="round" x1="331.083" y1="49.18" x2="337.083" y2="49.18"/>
	
		<line clip-path="url(#SVGID_2_)" fill="none" stroke="#343C48" stroke-width="3.5" stroke-linecap="round" stroke-linejoin="round" stroke-dasharray="7.663,7.663" x1="344.746" y1="49.18" x2="356.24" y2="49.18"/>
	
		<line clip-path="url(#SVGID_2_)" fill="none" stroke="#343C48" stroke-width="3.5" stroke-linecap="round" stroke-linejoin="round" x1="360.072" y1="49.18" x2="366.072" y2="49.18"/>
	
		<line clip-path="url(#SVGID_2_)" fill="none" stroke="#343C48" stroke-width="3.5" stroke-linecap="round" stroke-linejoin="round" x1="331.083" y1="64.458" x2="337.083" y2="64.458"/>
	
		<line clip-path="url(#SVGID_2_)" fill="none" stroke="#343C48" stroke-width="3.5" stroke-linecap="round" stroke-linejoin="round" stroke-dasharray="7.663,7.663" x1="344.746" y1="64.458" x2="356.24" y2="64.458"/>
	
		<line clip-path="url(#SVGID_2_)" fill="none" stroke="#343C48" stroke-width="3.5" stroke-linecap="round" stroke-linejoin="round" x1="360.072" y1="64.458" x2="366.072" y2="64.458"/>
	
		<line clip-path="url(#SVGID_2_)" fill="none" stroke="#343C48" stroke-width="3.5" stroke-linecap="round" stroke-linejoin="round" x1="331.083" y1="79.737" x2="337.083" y2="79.737"/>
	
		<line clip-path="url(#SVGID_2_)" fill="none" stroke="#343C48" stroke-width="3.5" stroke-linecap="round" stroke-linejoin="round" stroke-dasharray="7.663,7.663" x1="344.746" y1="79.737" x2="356.24" y2="79.737"/>
	
		<line clip-path="url(#SVGID_2_)" fill="none" stroke="#343C48" stroke-width="3.5" stroke-linecap="round" stroke-linejoin="round" x1="360.072" y1="79.737" x2="366.072" y2="79.737"/>
	
		<polyline clip-path="url(#SVGID_2_)" fill="none" stroke="#343C48" stroke-width="3.5" stroke-linecap="round" stroke-linejoin="round" stroke-miterlimit="10" points="
		376.083,49.18 417.583,49.18 417.583,96.43 	"/>
	
		<line clip-path="url(#SVGID_2_)" fill="none" stroke="#343C48" stroke-width="3.5" stroke-linecap="round" stroke-linejoin="round" x1="386.354" y1="64.458" x2="392.354" y2="64.458"/>
	
		<line clip-path="url(#SVGID_2_)" fill="none" stroke="#343C48" stroke-width="3.5" stroke-linecap="round" stroke-linejoin="round" x1="401.572" y1="64.458" x2="407.572" y2="64.458"/>
	
		<line clip-path="url(#SVGID_2_)" fill="none" stroke="#343C48" stroke-width="3.5" stroke-linecap="round" stroke-linejoin="round" x1="386.354" y1="79.737" x2="392.354" y2="79.737"/>
	
		<line clip-path="url(#SVGID_2_)" fill="none" stroke="#343C48" stroke-width="3.5" stroke-linecap="round" stroke-linejoin="round" x1="401.572" y1="79.737" x2="407.572" y2="79.737"/>
	
		<rect x="32.828" y="70.904" clip-path="url(#SVGID_2_)" fill="none" stroke="#343C48" stroke-width="3.5" stroke-linecap="round" stroke-linejoin="round" stroke-miterlimit="10" width="8.833" height="8.833"/>
	
		<rect x="11.328" y="70.904" clip-path="url(#SVGID_2_)" fill="none" stroke="#343C48" stroke-width="3.5" stroke-linecap="round" stroke-linejoin="round" stroke-miterlimit="10" width="8.833" height="8.833"/>
</g>
</svg>
