<?xml version="1.0" encoding="utf-8"?>
<!-- Generator: Adobe Illustrator 16.0.0, SVG Export Plug-In . SVG Version: 6.00 Build 0)  -->
<!DOCTYPE svg PUBLIC "-//W3C//DTD SVG 1.1//EN" "http://www.w3.org/Graphics/SVG/1.1/DTD/svg11.dtd">
<svg version="1.1" id="レイヤー_1" xmlns="http://www.w3.org/2000/svg" xmlns:xlink="http://www.w3.org/1999/xlink" x="0px"
	 y="0px" width="110.921px" height="77.506px" viewBox="0 0 110.921 77.506" enable-background="new 0 0 110.921 77.506"
	 xml:space="preserve">
<g>
	<defs>
		<rect id="SVGID_1_" y="0" width="110.921" height="77.507"/>
	</defs>
	<clipPath id="SVGID_2_">
		<use xlink:href="#SVGID_1_"  overflow="visible"/>
	</clipPath>
	
		<path clip-path="url(#SVGID_2_)" fill="none" stroke="#343C48" stroke-width="3.5" stroke-linecap="round" stroke-linejoin="round" stroke-miterlimit="10" d="
		M37.142,40.147c3.968,3.912,6.363,9.399,6.191,15.408c-0.328,11.479-9.901,20.521-21.382,20.192
		C10.471,75.418,1.43,65.846,1.758,54.366c0.275-9.586,6.994-17.471,15.887-19.621"/>
	
		<path clip-path="url(#SVGID_2_)" fill="none" stroke="#343C48" stroke-width="3.5" stroke-linecap="round" stroke-linejoin="round" stroke-miterlimit="10" d="
		M75.433,46.33c3.361-4.76,8.905-7.868,15.175-7.868c10.253,0,18.563,8.312,18.563,18.563c0,10.253-8.311,18.563-18.563,18.563
		c-7.689,0-14.286-4.675-17.104-11.338"/>
	
		<path clip-path="url(#SVGID_2_)" fill="none" stroke="#343C48" stroke-width="3.5" stroke-linecap="round" stroke-linejoin="round" stroke-miterlimit="10" d="
		M52.578,2.56c0,0-28.553-3.59-21.73,4.347c6.824,7.937,6.102,9.741,4.298,16.235c-1.804,6.494-14.965,33.883-14.965,33.883"/>
	
		<path clip-path="url(#SVGID_2_)" fill="none" stroke="#343C48" stroke-width="3.5" stroke-linecap="round" stroke-linejoin="round" stroke-miterlimit="10" d="
		M77.028,16.35c-3.801,10.562-11.144,28.464-11.144,28.464s-5.349,10.437,0,10.437h17.613"/>
	
		<line clip-path="url(#SVGID_2_)" fill="none" stroke="#343C48" stroke-width="3.5" stroke-linecap="round" stroke-linejoin="round" stroke-miterlimit="10" x1="33.82" y1="26.881" x2="73.091" y2="26.881"/>
	
		<line clip-path="url(#SVGID_2_)" fill="none" stroke="#343C48" stroke-width="3.5" stroke-linecap="round" stroke-linejoin="round" stroke-miterlimit="10" x1="68.914" y1="15.205" x2="85.705" y2="15.205"/>
</g>
</svg>
